<svg width="24" height="25" viewBox="0 0 24 25" fill="none" xmlns="http://www.w3.org/2000/svg">
<path d="M3 22.4315H21" stroke="#6C757D" stroke-width="1.5" stroke-linecap="round" stroke-linejoin="round"/>
<path d="M5.59998 8.81152H4C3.45 8.81152 3 9.26152 3 9.81152V18.4315C3 18.9815 3.45 19.4315 4 19.4315H5.59998C6.14998 19.4315 6.59998 18.9815 6.59998 18.4315V9.81152C6.59998 9.26152 6.14998 8.81152 5.59998 8.81152Z" stroke="#6C757D" stroke-width="1.5" stroke-linecap="round" stroke-linejoin="round"/>
<path d="M12.7999 5.62158H11.2C10.65 5.62158 10.2 6.07158 10.2 6.62158V18.4316C10.2 18.9816 10.65 19.4316 11.2 19.4316H12.7999C13.3499 19.4316 13.7999 18.9816 13.7999 18.4316V6.62158C13.7999 6.07158 13.3499 5.62158 12.7999 5.62158Z" stroke="#6C757D" stroke-width="1.5" stroke-linecap="round" stroke-linejoin="round"/>
<path d="M19.9999 2.43152H18.3999C17.8499 2.43152 17.3999 2.88152 17.3999 3.43152V18.4315C17.3999 18.9815 17.8499 19.4315 18.3999 19.4315H19.9999C20.5499 19.4315 20.9999 18.9815 20.9999 18.4315V3.43152C20.9999 2.88152 20.5499 2.43152 19.9999 2.43152Z" stroke="#6C757D" stroke-width="1.5" stroke-linecap="round" stroke-linejoin="round"/>
</svg>
