<svg width="32" height="32" viewBox="0 0 32 32" fill="none" xmlns="http://www.w3.org/2000/svg">
<path d="M20.1147 16.6254C20.0326 16.7281 19.9311 16.8136 19.816 16.877C19.7008 16.9404 19.5743 16.9805 19.4437 16.995C19.313 17.0095 19.1808 16.9981 19.0546 16.9614C18.9283 16.9248 18.8106 16.8636 18.708 16.7814L17.0013 15.4134V20C17.0013 20.2653 16.896 20.5196 16.7084 20.7071C16.5209 20.8947 16.2666 21 16.0013 21C15.7361 21 15.4818 20.8947 15.2942 20.7071C15.1067 20.5196 15.0013 20.2653 15.0013 20V15.4134L13.292 16.7814C13.0848 16.947 12.8202 17.0236 12.5566 16.9942C12.2929 16.9649 12.0517 16.8319 11.886 16.6247C11.7203 16.4175 11.6438 16.1529 11.6731 15.8893C11.7025 15.6256 11.8355 15.3844 12.0427 15.2187L15.372 12.5547C15.5499 12.4114 15.7715 12.3332 16 12.3334H16.0027C16.2427 12.3334 16.4613 12.4187 16.6333 12.56L19.9587 15.2187C20.0614 15.3008 20.1469 15.4023 20.2103 15.5174C20.2737 15.6325 20.3138 15.759 20.3283 15.8897C20.3428 16.0203 20.3314 16.1526 20.2947 16.2788C20.2581 16.405 20.1969 16.5228 20.1147 16.6254Z" fill="#3F3F3F"/>
<path fill-rule="evenodd" clip-rule="evenodd" d="M11.1733 9.592C11.9961 8.31142 13.203 7.32394 14.6211 6.7709C16.0392 6.21787 17.596 6.12761 19.0685 6.51306C20.541 6.8985 21.8539 7.73989 22.8192 8.91681C23.7845 10.0937 24.3528 11.5458 24.4427 13.0653C24.528 13.0618 24.6129 13.06 24.6973 13.06C26.2652 13.0834 27.7609 13.7227 28.8614 14.8398C29.9619 15.9568 30.5788 17.4619 30.5788 19.03C30.5788 20.5981 29.9619 22.1032 28.8614 23.2202C27.7609 24.3373 26.2652 24.9766 24.6973 25H9.16665C8.0534 24.9985 6.95325 24.7598 5.93953 24.2997C4.92581 23.8396 4.0218 23.1687 3.28775 22.3318C2.5537 21.4948 2.00648 20.511 1.68256 19.4459C1.35864 18.3809 1.26546 17.259 1.40923 16.155C1.553 15.0511 1.93042 13.9905 2.51633 13.0439C3.10224 12.0973 3.88318 11.2865 4.80711 10.6655C5.73104 10.0445 6.77673 9.62749 7.87448 9.44239C8.97223 9.25728 10.0968 9.30829 11.1733 9.592ZM17.2426 8.27734C16.261 8.27709 15.2992 8.55402 14.4679 9.07626C13.6367 9.5985 12.9698 10.3448 12.544 11.2293C12.4346 11.4558 12.2439 11.6328 12.0099 11.725C11.7759 11.8171 11.5158 11.8178 11.2813 11.7267C10.4827 11.4175 9.62571 11.288 8.77136 11.3474C7.91701 11.4067 7.0862 11.6534 6.33795 12.0701C5.5897 12.4867 4.94235 13.0629 4.4419 13.7579C3.94144 14.4528 3.60014 15.2495 3.44225 16.0912C3.28436 16.9329 3.31374 17.7991 3.52831 18.6282C3.74288 19.4573 4.13738 20.229 4.68378 20.8884C5.23019 21.5479 5.91509 22.0789 6.68986 22.4439C7.46462 22.8088 8.31024 22.9987 9.16665 23H24.6973C25.2624 22.9998 25.8209 22.879 26.3355 22.6457C26.8501 22.4124 27.309 22.0719 27.6815 21.6471C28.0541 21.2222 28.3316 20.7227 28.4956 20.182C28.6597 19.6413 28.7064 19.0718 28.6327 18.5116C28.5591 17.9514 28.3667 17.4133 28.0684 16.9334C27.7702 16.4535 27.3729 16.0428 26.9032 15.7287C26.4335 15.4146 25.9022 15.2043 25.3447 15.112C24.7873 15.0197 24.2165 15.0474 23.6707 15.1933C23.5129 15.2356 23.3473 15.2386 23.1881 15.2021C23.029 15.1656 22.8812 15.0906 22.7577 14.9838C22.6342 14.877 22.5387 14.7416 22.4796 14.5894C22.4205 14.4372 22.3996 14.2728 22.4186 14.1107C22.4426 13.9071 22.4546 13.7004 22.4546 13.4907C22.4546 12.1082 21.9056 10.7824 20.9282 9.80476C19.9508 8.82711 18.6251 8.27769 17.2426 8.27734Z" fill="#3F3F3F"/>
</svg>
