<svg width="25" height="85" viewBox="0 0 25 85" fill="none" xmlns="http://www.w3.org/2000/svg">
<path opacity="0.4" d="M15.98 11.27L12.19 16.32H6.57999C5.61999 16.32 5.13999 15.16 5.81999 14.48L11 9.29999C11.83 8.46999 13.18 8.46999 14.01 9.29999L15.98 11.27Z" fill="#5962ED"/>
<path d="M18.4199 16.32H12.1899L15.9799 11.27L19.1899 14.48C19.8599 15.16 19.3799 16.32 18.4199 16.32Z" fill="#5962ED"/>
<path opacity="0.4" d="M15.98 41.27L12.19 46.32H6.57999C5.61999 46.32 5.13999 45.16 5.81999 44.48L11 39.3C11.83 38.47 13.18 38.47 14.01 39.3L15.98 41.27Z" fill="#5962ED"/>
<path d="M18.4199 46.32H12.1899L15.9799 41.27L19.1899 44.48C19.8599 45.16 19.3799 46.32 18.4199 46.32Z" fill="#5962ED"/>
<path opacity="0.4" d="M15.98 71.27L12.19 76.32H6.57999C5.61999 76.32 5.13999 75.16 5.81999 74.48L11 69.3C11.83 68.47 13.18 68.47 14.01 69.3L15.98 71.27Z" fill="#5962ED"/>
<path d="M18.4199 76.32H12.1899L15.9799 71.27L19.1899 74.48C19.8599 75.16 19.3799 76.32 18.4199 76.32Z" fill="#5962ED"/>
</svg>
