<svg width="20" height="21" viewBox="0 0 20 21" fill="none" xmlns="http://www.w3.org/2000/svg">
<path d="M5.83333 7.93156V6.26489H17.5V7.93156H5.83333ZM5.83333 11.2649V9.59823H17.5V11.2649H5.83333ZM5.83333 14.5982V12.9316H17.5V14.5982H5.83333ZM3.33333 7.93156C3.09722 7.93156 2.89931 7.8517 2.73958 7.69198C2.57986 7.53225 2.5 7.33434 2.5 7.09823C2.5 6.86211 2.57986 6.6642 2.73958 6.50448C2.89931 6.34475 3.09722 6.26489 3.33333 6.26489C3.56944 6.26489 3.76736 6.34475 3.92708 6.50448C4.08681 6.6642 4.16667 6.86211 4.16667 7.09823C4.16667 7.33434 4.08681 7.53225 3.92708 7.69198C3.76736 7.8517 3.56944 7.93156 3.33333 7.93156ZM3.33333 11.2649C3.09722 11.2649 2.89931 11.185 2.73958 11.0253C2.57986 10.8656 2.5 10.6677 2.5 10.4316C2.5 10.1954 2.57986 9.99753 2.73958 9.83781C2.89931 9.67809 3.09722 9.59823 3.33333 9.59823C3.56944 9.59823 3.76736 9.67809 3.92708 9.83781C4.08681 9.99753 4.16667 10.1954 4.16667 10.4316C4.16667 10.6677 4.08681 10.8656 3.92708 11.0253C3.76736 11.185 3.56944 11.2649 3.33333 11.2649ZM3.33333 14.5982C3.09722 14.5982 2.89931 14.5184 2.73958 14.3586C2.57986 14.1989 2.5 14.001 2.5 13.7649C2.5 13.5288 2.57986 13.3309 2.73958 13.1711C2.89931 13.0114 3.09722 12.9316 3.33333 12.9316C3.56944 12.9316 3.76736 13.0114 3.92708 13.1711C4.08681 13.3309 4.16667 13.5288 4.16667 13.7649C4.16667 14.001 4.08681 14.1989 3.92708 14.3586C3.76736 14.5184 3.56944 14.5982 3.33333 14.5982Z" fill="#3841C0"/>
</svg>
