
    <svg width="20" height="20" viewBox="0 0 20 20" fill="none" xmlns="http://www.w3.org/2000/svg">
      <path
        d="M14.1667 11.6666V16.6666M11.6667 14.1666H16.6667M5.00004 8.33325H6.66671C7.58718 8.33325 8.33337 7.58706 8.33337 6.66659V4.99992C8.33337 4.07944 7.58718 3.33325 6.66671 3.33325H5.00004C4.07957 3.33325 3.33337 4.07944 3.33337 4.99992V6.66659C3.33337 7.58706 4.07957 8.33325 5.00004 8.33325ZM13.3334 8.33325H15C15.9205 8.33325 16.6667 7.58706 16.6667 6.66659V4.99992C16.6667 4.07944 15.9205 3.33325 15 3.33325H13.3334C12.4129 3.33325 11.6667 4.07944 11.6667 4.99992V6.66659C11.6667 7.58706 12.4129 8.33325 13.3334 8.33325ZM5.00004 16.6666H6.66671C7.58718 16.6666 8.33337 15.9204 8.33337 14.9999V13.3333C8.33337 12.4128 7.58718 11.6666 6.66671 11.6666H5.00004C4.07957 11.6666 3.33337 12.4128 3.33337 13.3333V14.9999C3.33337 15.9204 4.07957 16.6666 5.00004 16.6666Z"
        stroke="#6C757D"
        stroke-width="1.5"
        stroke-linecap="round"
        stroke-linejoin="round"
      />
    </svg>


