<svg width="20" height="20" viewBox="0 0 20 20" fill="none" xmlns="http://www.w3.org/2000/svg">
<path d="M14.1666 11.6667V16.6667M11.6666 14.1667H16.6666M4.99992 8.33337H6.66659C7.58706 8.33337 8.33325 7.58718 8.33325 6.66671V5.00004C8.33325 4.07957 7.58706 3.33337 6.66659 3.33337H4.99992C4.07944 3.33337 3.33325 4.07957 3.33325 5.00004V6.66671C3.33325 7.58718 4.07944 8.33337 4.99992 8.33337ZM13.3333 8.33337H14.9999C15.9204 8.33337 16.6666 7.58718 16.6666 6.66671V5.00004C16.6666 4.07957 15.9204 3.33337 14.9999 3.33337H13.3333C12.4128 3.33337 11.6666 4.07957 11.6666 5.00004V6.66671C11.6666 7.58718 12.4128 8.33337 13.3333 8.33337ZM4.99992 16.6667H6.66659C7.58706 16.6667 8.33325 15.9205 8.33325 15V13.3334C8.33325 12.4129 7.58706 11.6667 6.66659 11.6667H4.99992C4.07944 11.6667 3.33325 12.4129 3.33325 13.3334V15C3.33325 15.9205 4.07944 16.6667 4.99992 16.6667Z" stroke="#3841C0" stroke-width="1.5" stroke-linecap="round" stroke-linejoin="round"/>
</svg>
