<?xml version="1.0" encoding="UTF-8"?>
<svg id="Layer_2" data-name="Layer 2" xmlns="http://www.w3.org/2000/svg" viewBox="0 0 91.83 122.74">
  <defs>
    <style>
      .cls-1 {
        fill: #5862ed;
        stroke-width: 0px;
      }
    </style>
  </defs>
  <g id="Layer_1-2" data-name="Layer 1">
    <g>
      <polygon class="cls-1" points="48.23 67.6 38.43 64.05 38.43 64.04 48.23 67.6"/>
      <path class="cls-1" d="m52.06,88.83v.11s.04.94.04.94v.35c.02.66.03,1.4.03,2.22.04,5.83.08,11.67.09,17.5.02,6.76-2.53,9.98-9.49,12.06-6.37,1.9-12.63.02-15.59-4.68-3.19-5.07-2.97-12.17,1.42-16.16,2.37-2.15,6.06-2.83,9.11-4.25.52-.24,1.02-.55,1.5-.87.72-.48.76-1.51.09-2.05-.6-.49-1.18-.88-1.62-.76-3.87,1.1-8.04,1.98-11.35,4.12-6.8,4.37-14.04,4.36-19.54-.97-5.5-5.34-6.19-13.6-1.58-20.06,2.35-3.31,5.18-5.82,9.68-4,5.13,2.08,7.26,5.43,6.72,10.33-.03.28-.04.56-.05.84-.02,1.2,1.51,1.76,2.26.82,1.97-2.46,2.17-6.48-.05-9.56-1.67-2.33-4.25-4.17-6.73-5.72-3.23-2.03-6.9-3.35-10.15-5.34C.86,60.01-1.37,53.8.82,47.8c2.5-6.85,9.19-10.96,16.1-9.89,7.05,1.09,11.24,8.01,9.12,15-.32,1.07-.59,2.16-.89,3.41-.24.99.72,1.84,1.68,1.5,3-1.06,3.53-3.77,3.65-5.97.22-3.98,2.21-6.15,5.02-8.52,4.62-3.91,6.86-9.08,4.99-15.18-.25-.83-.98-1.52-1.79-2.18s-1.93-.18-2.07.8c-.12.8-.17,1.58.03,2.29,1.41,4.92-.63,9.76-5.86,12.92-.6.36-1.37.19-1.75-.4-4.8-7.21-11.75-9.23-20.42-7.2-.7.17-1.39-.32-1.52-1.03-.99-5.36.42-9.76,4.06-13.54,3.85-3.99,8.07-4.37,13.12-1.78,6.36,3.26,12.83,1.32,15.36-4.18.31-.66.28-1.48.21-2.32s-.96-1.38-1.75-1.06c-.73.3-1.42.63-1.8,1.18-2.56,3.69-5.76,5.28-9.76,2.9-1.23-.73-2.37-3.31-2.04-4.68C25.91,4.09,34.2-.65,40.88.07c6.61.7,11.04,5.35,11.1,12.57.11,13.14.11,26.27.11,39.41,0,.37-.15.72-.43.96-1.23,1.05-2.64,1.87-4.2,2.44l-7.6,2.74-4.27,1.53-.67.24-.59.21c-1.12.4-1.12,1.98,0,2.39h0s4.1,1.48,4.1,1.48h0s9.8,3.56,9.8,3.56c1.25.53,2.4,1.24,3.41,2.1.28.24.43.6.43.96,0,1.99,0,3.97,0,5.96v12.2Z"/>
      <path class="cls-1" d="m80.32,61.37l-5.99,2.16c-4.94,1.77-8.82,5.66-10.6,10.59l-2.16,6-2.15-6c-1.37-3.79-3.98-6.96-7.35-9.02-1.02-.63-2.1-1.16-3.25-1.57l-5.99-2.16,5.99-2.16c1.15-.41,2.24-.94,3.26-1.57,3.37-2.07,5.97-5.24,7.34-9.02l2.15-6,2.16,6c1.78,4.93,5.66,8.82,10.6,10.59l5.99,2.16Z"/>
      <path class="cls-1" d="m82.34,32.26l1.13,3.14c.88,2.43,2.79,4.35,5.23,5.23l3.14,1.13-3.14,1.13c-2.43.88-4.35,2.79-5.23,5.23l-1.13,3.14-1.13-3.14c-.88-2.43-2.79-4.35-5.23-5.23l-3.14-1.13,3.14-1.13c2.43-.88,4.35-2.79,5.23-5.23l1.13-3.14Z"/>
      <path class="cls-1" d="m82.34,71.5l1.13,3.14c.88,2.43,2.79,4.35,5.23,5.23l3.14,1.13-3.14,1.13c-2.43.88-4.35,2.79-5.23,5.23l-1.13,3.14-1.13-3.14c-.88-2.43-2.79-4.35-5.23-5.23l-3.14-1.13,3.14-1.13c2.43-.88,4.35-2.79,5.23-5.23l1.13-3.14Z"/>
    </g>
  </g>
</svg>