<svg width="20" height="20" viewBox="0 0 20 20" fill="none" xmlns="http://www.w3.org/2000/svg">
<path d="M15.0625 1.29492L18.54 4.91992V18.7049H5.54938V18.7499H18.5844V4.96555L15.0625 1.29492Z" fill="#F4F9EE" fill-opacity="0.08"/>
<path d="M15.0194 1.25H5.505V18.705H18.54V4.92063L15.0194 1.25Z" fill="#F4F4F4"/>
<path d="M5.4094 2.1875H1.41565V6.45437H13.9781V2.1875H5.4094Z" fill="#7A7B7C"/>
<path d="M14.045 6.38182H1.49689V2.11182H14.045V6.38182Z" fill="#B3001B"/>
<path d="M5.65751 2.83367H4.84064V5.83367H5.48314V4.82179L5.62501 4.82992C5.76292 4.82802 5.89955 4.80331 6.02939 4.75679C6.14353 4.71804 6.24843 4.65612 6.33751 4.57492C6.42886 4.49832 6.50064 4.40105 6.54689 4.29117C6.61017 4.10912 6.63257 3.91536 6.61251 3.72367C6.60895 3.5867 6.58493 3.45104 6.54126 3.32117C6.50191 3.2273 6.44339 3.14268 6.36945 3.07273C6.29552 3.00277 6.20779 2.94902 6.11189 2.91492C6.02921 2.8843 5.94352 2.86251 5.85626 2.84992C5.79034 2.83918 5.72367 2.83375 5.65689 2.83367M5.53876 4.26742H5.48314V3.34242H5.60376C5.657 3.33858 5.71042 3.34675 5.76007 3.36633C5.80973 3.38591 5.85435 3.4164 5.89064 3.45554C5.96584 3.55618 6.00601 3.67867 6.00501 3.80429C6.00501 3.95804 6.00501 4.09742 5.86626 4.19554C5.76633 4.25059 5.65253 4.27597 5.53876 4.26742ZM7.83314 2.82554C7.76376 2.82554 7.69626 2.83054 7.64876 2.83242L7.50001 2.83617H7.01251V5.83617H7.58626C7.8055 5.84181 8.02374 5.80466 8.22876 5.72679C8.39384 5.6616 8.53995 5.5561 8.65376 5.41992C8.76529 5.28314 8.84493 5.12322 8.88689 4.95179C8.93618 4.758 8.96013 4.55863 8.95814 4.35867C8.97037 4.12252 8.9521 3.88577 8.90376 3.65429C8.85749 3.4841 8.77185 3.32717 8.65376 3.19617C8.56113 3.09024 8.44719 3.00505 8.31939 2.94617C8.2099 2.89542 8.0947 2.85807 7.97626 2.83492C7.92917 2.8272 7.88148 2.82364 7.83376 2.82429M7.72001 5.28492H7.65751V3.36992H7.66564C7.79449 3.35502 7.92488 3.37827 8.04064 3.43679C8.12543 3.5045 8.19452 3.58979 8.24314 3.68679C8.29561 3.78888 8.32586 3.90092 8.33189 4.01554C8.33751 4.15304 8.33189 4.26554 8.33189 4.35867C8.3342 4.46594 8.3273 4.57321 8.31126 4.67929C8.2916 4.78808 8.25601 4.89338 8.20564 4.99179C8.14873 5.08357 8.07101 5.16065 7.97876 5.21679C7.90171 5.2668 7.81035 5.29008 7.71876 5.28304M10.8938 2.83617H9.37501V5.83617H10.0175V4.64617H10.83V4.08867H10.0175V3.39367H10.8925V2.83617" fill="#464648"/>
<path d="M13.6131 12.6594C13.6131 12.6594 15.6056 12.2982 15.6056 12.9788C15.6056 13.6594 14.3712 13.3826 13.6131 12.6594ZM12.14 12.7113C11.8234 12.7811 11.5148 12.8835 11.2194 13.0169L11.4694 12.4544C11.7194 11.8919 11.9787 11.1251 11.9787 11.1251C12.2763 11.6276 12.6235 12.0992 13.015 12.5326C12.7202 12.5765 12.4281 12.6366 12.14 12.7126V12.7113ZM11.3512 8.64882C11.3512 8.05569 11.5431 7.89382 11.6925 7.89382C11.8419 7.89382 12.01 7.96569 12.0156 8.48069C11.9669 8.99853 11.8584 9.509 11.6925 10.0019C11.4644 9.58836 11.3466 9.12299 11.3506 8.65069L11.3512 8.64882ZM8.44562 15.2213C7.83437 14.8557 9.72749 13.7301 10.0706 13.6938C10.0687 13.6944 9.08562 15.6038 8.44562 15.2213ZM16.1875 13.0594C16.1812 12.9969 16.125 12.3051 14.8937 12.3344C14.3805 12.3254 13.8675 12.3616 13.3606 12.4426C12.8693 11.948 12.4464 11.3899 12.1031 10.7832C12.3192 10.1578 12.4502 9.50607 12.4925 8.84569C12.4744 8.09569 12.295 7.66569 11.72 7.67194C11.145 7.67819 11.0612 8.18132 11.1369 8.93007C11.2109 9.43324 11.3506 9.92451 11.5525 10.3913C11.5525 10.3913 11.2869 11.2182 10.9356 12.0407C10.5844 12.8632 10.3444 13.2944 10.3444 13.2944C9.73348 13.4931 9.15845 13.7885 8.64124 14.1694C8.12624 14.6488 7.91687 15.0169 8.18812 15.3851C8.42187 15.7026 9.23999 15.7744 9.97124 14.8163C10.3591 14.321 10.714 13.8007 11.0337 13.2588C11.0337 13.2588 12.1487 12.9532 12.4956 12.8694C12.8425 12.7857 13.2619 12.7194 13.2619 12.7194C13.2619 12.7194 14.28 13.7438 15.2619 13.7076C16.2437 13.6713 16.1962 13.1207 16.19 13.0607" fill="#B3001B"/>
<path d="M14.9713 1.2981V4.96872H18.4919L14.9713 1.2981Z" fill="#F4F9EE" fill-opacity="0.08"/>
<path d="M15.0193 1.25V4.92063H18.54L15.0193 1.25Z" fill="#F4F4F4"/>
<path d="M5.60936 2.78557H4.79248V5.78557H5.43748V4.77432L5.57998 4.78245C5.71788 4.78055 5.85452 4.75584 5.98436 4.70932C6.09849 4.67057 6.2034 4.60865 6.29248 4.52745C6.38315 4.45064 6.45427 4.35338 6.49998 4.2437C6.56326 4.06164 6.58566 3.86789 6.56561 3.6762C6.56204 3.53923 6.53803 3.40357 6.49436 3.2737C6.455 3.17983 6.39648 3.09521 6.32255 3.02526C6.24861 2.9553 6.16088 2.90155 6.06498 2.86745C5.98192 2.83653 5.89581 2.81453 5.80811 2.80182C5.74219 2.79109 5.67552 2.78566 5.60873 2.78557M5.49061 4.21932H5.43498V3.29432H5.55623C5.60947 3.29048 5.66289 3.29866 5.71254 3.31824C5.7622 3.33782 5.80682 3.36831 5.84311 3.40745C5.9183 3.50808 5.95848 3.63058 5.95748 3.7562C5.95748 3.90995 5.95748 4.04932 5.81873 4.14745C5.7188 4.20249 5.605 4.22725 5.49123 4.2187M7.78498 2.77745C7.71561 2.77745 7.64811 2.78245 7.60061 2.78432L7.45373 2.78807H6.96623V5.78807H7.53998C7.75922 5.79371 7.97746 5.75656 8.18248 5.6787C8.34755 5.61351 8.49367 5.50801 8.60748 5.37182C8.71901 5.23504 8.79865 5.07513 8.84061 4.9037C8.8899 4.7099 8.91385 4.51053 8.91185 4.31057C8.92409 4.07442 8.90581 3.83768 8.85748 3.6062C8.81121 3.436 8.72557 3.27907 8.60748 3.14807C8.51485 3.04214 8.40091 2.95695 8.27311 2.89807C8.16362 2.84732 8.04841 2.80997 7.92998 2.78682C7.88288 2.7791 7.8352 2.77555 7.78748 2.7762M7.67373 5.23682H7.61123V3.32182H7.61935C7.74821 3.30692 7.8786 3.33018 7.99436 3.3887C8.07914 3.4564 8.14823 3.5417 8.19685 3.6387C8.24933 3.74078 8.27957 3.85283 8.2856 3.96745C8.29123 4.10495 8.2856 4.21745 8.2856 4.31057C8.28792 4.41784 8.28102 4.52511 8.26498 4.6312C8.24532 4.73999 8.20973 4.84529 8.15936 4.9437C8.10245 5.03548 8.02473 5.11256 7.93248 5.1687C7.85543 5.2187 7.76407 5.24198 7.67248 5.23495M10.8456 2.78807H9.32686V5.78807H9.96936V4.59807H10.7819V4.04057H9.96936V3.34557H10.8444V2.78807" fill="white"/>
</svg>
