<svg width="12" height="16" viewBox="0 0 12 16" fill="none" xmlns="http://www.w3.org/2000/svg">
<path d="M1.62498 6.125C1.62487 5.40394 1.80297 4.69403 2.14345 4.05843C2.48393 3.42282 2.97623 2.88122 3.57656 2.48181C4.17689 2.08239 4.86663 1.83755 5.58443 1.76906C6.30223 1.70058 7.02583 1.81056 7.69085 2.08924C8.35588 2.36792 8.94172 2.80665 9.39626 3.3664C9.85079 3.92615 10.1599 4.58957 10.2962 5.29763C10.4324 6.0057 10.3915 6.73647 10.1772 7.42493C9.96282 8.11338 9.58161 8.73818 9.06748 9.24375C8.82623 9.48125 8.61373 9.79 8.51123 10.1637L8.07998 11.75H3.91998L3.48748 10.1637C3.38701 9.81344 3.19552 9.496 2.93248 9.24375C2.51851 8.83667 2.1897 8.35126 1.96522 7.81581C1.74074 7.28037 1.62508 6.7056 1.62498 6.125ZM4.26249 13H7.73748L7.52373 13.79C7.48752 13.9223 7.40879 14.039 7.29969 14.1221C7.19058 14.2053 7.05715 14.2502 6.91998 14.25H5.07998C4.94282 14.2502 4.80939 14.2053 4.70028 14.1221C4.59118 14.039 4.51245 13.9223 4.47623 13.79L4.26249 13ZM5.99998 0.5C4.88361 0.500185 3.79254 0.832554 2.86566 1.4548C1.93878 2.07704 1.21802 2.96102 0.795125 3.99419C0.372231 5.02737 0.266332 6.16301 0.49091 7.25657C0.715488 8.35012 1.26038 9.35211 2.05623 10.135C2.16163 10.2326 2.23926 10.3564 2.28123 10.4937L3.27123 14.1188C3.37953 14.5155 3.61524 14.8656 3.94208 15.1152C4.26892 15.3648 4.66875 15.5 5.07998 15.5H6.91998C7.33122 15.5 7.73105 15.3648 8.05789 15.1152C8.38472 14.8656 8.62044 14.5155 8.72873 14.1188L9.71748 10.4937C9.75981 10.3562 9.83788 10.2324 9.94373 10.135C10.7396 9.35211 11.2845 8.35012 11.5091 7.25657C11.7336 6.16301 11.6277 5.02737 11.2048 3.99419C10.7819 2.96102 10.0612 2.07704 9.13431 1.4548C8.20743 0.832554 7.11636 0.500185 5.99998 0.5Z" fill="#3F3F3F"/>
</svg>
