<svg width="20" height="21" viewBox="0 0 20 21" fill="none" xmlns="http://www.w3.org/2000/svg">
<path d="M8.60386 4.02928C8.95919 2.5656 11.0408 2.5656 11.3961 4.02928C11.6257 4.97479 12.709 5.4235 13.5398 4.91723C14.8261 4.13351 16.298 5.60544 15.5143 6.89167C15.008 7.72256 15.4567 8.80583 16.4022 9.03537C17.8659 9.39071 17.8659 11.4723 16.4022 11.8277C15.4567 12.0572 15.008 13.1405 15.5143 13.9714C16.298 15.2576 14.8261 16.7295 13.5398 15.9458C12.709 15.4395 11.6257 15.8882 11.3961 16.8338C11.0408 18.2974 8.95919 18.2974 8.60386 16.8338C8.37431 15.8882 7.29105 15.4395 6.46016 15.9458C5.17392 16.7295 3.70199 15.2576 4.48571 13.9714C4.99198 13.1405 4.54327 12.0572 3.59776 11.8277C2.13408 11.4723 2.13408 9.39071 3.59776 9.03537C4.54327 8.80583 4.99198 7.72256 4.48571 6.89167C3.70199 5.60544 5.17392 4.13351 6.46015 4.91723C7.29105 5.4235 8.37431 4.97479 8.60386 4.02928Z" stroke="#6C757D" stroke-width="1.5" stroke-linecap="round" stroke-linejoin="round"/>
<path d="M12.5 10.4315C12.5 11.8122 11.3807 12.9315 10 12.9315C8.61929 12.9315 7.5 11.8122 7.5 10.4315C7.5 9.05081 8.61929 7.93152 10 7.93152C11.3807 7.93152 12.5 9.05081 12.5 10.4315Z" stroke="#6C757D" stroke-width="1.5" stroke-linecap="round" stroke-linejoin="round"/>
</svg>
