<svg width="180" height="180" viewBox="0 0 180 180" fill="none" xmlns="http://www.w3.org/2000/svg">
<rect x="18" y="46" width="144" height="134" rx="67" fill="#5962ED"/>
<path d="M35.296 121.168C34.176 121.168 33.168 120.976 32.272 120.592C31.376 120.192 30.672 119.632 30.16 118.912C29.648 118.192 29.392 117.352 29.392 116.392H32.32C32.384 117.112 32.664 117.704 33.16 118.168C33.672 118.632 34.384 118.864 35.296 118.864C36.24 118.864 36.976 118.64 37.504 118.192C38.032 117.728 38.296 117.136 38.296 116.416C38.296 115.856 38.128 115.4 37.792 115.048C37.472 114.696 37.064 114.424 36.568 114.232C36.088 114.04 35.416 113.832 34.552 113.608C33.464 113.32 32.576 113.032 31.888 112.744C31.216 112.44 30.64 111.976 30.16 111.352C29.68 110.728 29.44 109.896 29.44 108.856C29.44 107.896 29.68 107.056 30.16 106.336C30.64 105.616 31.312 105.064 32.176 104.68C33.04 104.296 34.04 104.104 35.176 104.104C36.792 104.104 38.112 104.512 39.136 105.328C40.176 106.128 40.752 107.232 40.864 108.64H37.84C37.792 108.032 37.504 107.512 36.976 107.08C36.448 106.648 35.752 106.432 34.888 106.432C34.104 106.432 33.464 106.632 32.968 107.032C32.472 107.432 32.224 108.008 32.224 108.76C32.224 109.272 32.376 109.696 32.68 110.032C33 110.352 33.4 110.608 33.88 110.8C34.36 110.992 35.016 111.2 35.848 111.424C36.952 111.728 37.848 112.032 38.536 112.336C39.24 112.64 39.832 113.112 40.312 113.752C40.808 114.376 41.056 115.216 41.056 116.272C41.056 117.12 40.824 117.92 40.36 118.672C39.912 119.424 39.248 120.032 38.368 120.496C37.504 120.944 36.48 121.168 35.296 121.168ZM47.4764 110.008V117.328C47.4764 117.824 47.5884 118.184 47.8124 118.408C48.0524 118.616 48.4524 118.72 49.0124 118.72H50.6924V121H48.5324C47.3004 121 46.3564 120.712 45.7004 120.136C45.0444 119.56 44.7164 118.624 44.7164 117.328V110.008H43.1564V107.776H44.7164V104.488H47.4764V107.776H50.6924V110.008H47.4764ZM52.3021 114.328C52.3021 113 52.5741 111.824 53.1181 110.8C53.6781 109.776 54.4301 108.984 55.3741 108.424C56.3341 107.848 57.3901 107.56 58.5421 107.56C59.5821 107.56 60.4861 107.768 61.2541 108.184C62.0381 108.584 62.6621 109.088 63.1261 109.696V107.776H65.8861V121H63.1261V119.032C62.6621 119.656 62.0301 120.176 61.2301 120.592C60.4301 121.008 59.5181 121.216 58.4941 121.216C57.3581 121.216 56.3181 120.928 55.3741 120.352C54.4301 119.76 53.6781 118.944 53.1181 117.904C52.5741 116.848 52.3021 115.656 52.3021 114.328ZM63.1261 114.376C63.1261 113.464 62.9341 112.672 62.5501 112C62.1821 111.328 61.6941 110.816 61.0861 110.464C60.4781 110.112 59.8221 109.936 59.1181 109.936C58.4141 109.936 57.7581 110.112 57.1501 110.464C56.5421 110.8 56.0461 111.304 55.6621 111.976C55.2941 112.632 55.1101 113.416 55.1101 114.328C55.1101 115.24 55.2941 116.04 55.6621 116.728C56.0461 117.416 56.5421 117.944 57.1501 118.312C57.7741 118.664 58.4301 118.84 59.1181 118.84C59.8221 118.84 60.4781 118.664 61.0861 118.312C61.6941 117.96 62.1821 117.448 62.5501 116.776C62.9341 116.088 63.1261 115.288 63.1261 114.376ZM72.2157 109.696C72.6157 109.024 73.1437 108.504 73.7997 108.136C74.4717 107.752 75.2637 107.56 76.1757 107.56V110.392H75.4797C74.4077 110.392 73.5917 110.664 73.0317 111.208C72.4877 111.752 72.2157 112.696 72.2157 114.04V121H69.4797V107.776H72.2157V109.696ZM81.8826 110.008V117.328C81.8826 117.824 81.9946 118.184 82.2186 118.408C82.4586 118.616 82.8586 118.72 83.4186 118.72H85.0986V121H82.9386C81.7066 121 80.7626 120.712 80.1066 120.136C79.4506 119.56 79.1226 118.624 79.1226 117.328V110.008H77.5626V107.776H79.1226V104.488H81.8826V107.776H85.0986V110.008H81.8826ZM92.9427 112.624C92.9427 110.992 93.3187 109.528 94.0707 108.232C94.8387 106.936 95.8707 105.928 97.1667 105.208C98.4787 104.472 99.9107 104.104 101.463 104.104C103.239 104.104 104.815 104.544 106.191 105.424C107.583 106.288 108.591 107.52 109.215 109.12H105.927C105.495 108.24 104.895 107.584 104.127 107.152C103.359 106.72 102.471 106.504 101.463 106.504C100.359 106.504 99.3747 106.752 98.5107 107.248C97.6467 107.744 96.9667 108.456 96.4707 109.384C95.9907 110.312 95.7507 111.392 95.7507 112.624C95.7507 113.856 95.9907 114.936 96.4707 115.864C96.9667 116.792 97.6467 117.512 98.5107 118.024C99.3747 118.52 100.359 118.768 101.463 118.768C102.471 118.768 103.359 118.552 104.127 118.12C104.895 117.688 105.495 117.032 105.927 116.152H109.215C108.591 117.752 107.583 118.984 106.191 119.848C104.815 120.712 103.239 121.144 101.463 121.144C99.8947 121.144 98.4627 120.784 97.1667 120.064C95.8707 119.328 94.8387 118.312 94.0707 117.016C93.3187 115.72 92.9427 114.256 92.9427 112.624ZM119.257 107.56C120.265 107.56 121.161 107.776 121.945 108.208C122.745 108.64 123.369 109.28 123.817 110.128C124.281 110.976 124.513 112 124.513 113.2V121H121.801V113.608C121.801 112.424 121.505 111.52 120.913 110.896C120.321 110.256 119.513 109.936 118.489 109.936C117.465 109.936 116.649 110.256 116.041 110.896C115.449 111.52 115.153 112.424 115.153 113.608V121H112.417V103.24H115.153V109.312C115.617 108.752 116.201 108.32 116.905 108.016C117.625 107.712 118.409 107.56 119.257 107.56ZM127.091 114.328C127.091 113 127.363 111.824 127.907 110.8C128.467 109.776 129.219 108.984 130.163 108.424C131.123 107.848 132.179 107.56 133.331 107.56C134.371 107.56 135.275 107.768 136.043 108.184C136.827 108.584 137.451 109.088 137.915 109.696V107.776H140.675V121H137.915V119.032C137.451 119.656 136.819 120.176 136.019 120.592C135.219 121.008 134.307 121.216 133.283 121.216C132.147 121.216 131.107 120.928 130.163 120.352C129.219 119.76 128.467 118.944 127.907 117.904C127.363 116.848 127.091 115.656 127.091 114.328ZM137.915 114.376C137.915 113.464 137.723 112.672 137.339 112C136.971 111.328 136.483 110.816 135.875 110.464C135.267 110.112 134.611 109.936 133.907 109.936C133.203 109.936 132.547 110.112 131.939 110.464C131.331 110.8 130.835 111.304 130.451 111.976C130.083 112.632 129.899 113.416 129.899 114.328C129.899 115.24 130.083 116.04 130.451 116.728C130.835 117.416 131.331 117.944 131.939 118.312C132.563 118.664 133.219 118.84 133.907 118.84C134.611 118.84 135.267 118.664 135.875 118.312C136.483 117.96 136.971 117.448 137.339 116.776C137.723 116.088 137.915 115.288 137.915 114.376ZM147.461 110.008V117.328C147.461 117.824 147.573 118.184 147.797 118.408C148.037 118.616 148.437 118.72 148.997 118.72H150.677V121H148.517C147.285 121 146.341 120.712 145.685 120.136C145.029 119.56 144.701 118.624 144.701 117.328V110.008H143.141V107.776H144.701V104.488H147.461V107.776H150.677V110.008H147.461Z" fill="#FFFAEC"/>
<circle cx="90" cy="95" r="84.5" stroke="#3841C0"/>
<circle cx="90" cy="90" r="89.5" stroke="#3841C0"/>
</svg>
