<svg width="14" height="14" viewBox="0 0 14 14" fill="none" xmlns="http://www.w3.org/2000/svg">
<mask id="path-1-inside-1_247_1118" fill="white">
<path d="M3.20833 9.33329H9.91667C11.2058 9.33329 12.25 8.28913 12.25 6.99996C12.25 5.71079 11.2058 4.66663 9.91667 4.66663H2.625C2.23823 4.66663 1.86729 4.82027 1.5938 5.09376C1.32031 5.36725 1.16667 5.73819 1.16667 6.12496C1.16667 6.51173 1.32031 6.88267 1.5938 7.15616C1.86729 7.42965 2.23823 7.58329 2.625 7.58329H8.75C9.07083 7.58329 9.33333 7.32079 9.33333 6.99996C9.33333 6.67913 9.07083 6.41663 8.75 6.41663H3.20833V5.54163H8.75C9.13677 5.54163 9.50771 5.69527 9.7812 5.96876C10.0547 6.24225 10.2083 6.61318 10.2083 6.99996C10.2083 7.38673 10.0547 7.75767 9.7812 8.03116C9.50771 8.30465 9.13677 8.45829 8.75 8.45829H2.625C1.33583 8.45829 0.291667 7.41413 0.291667 6.12496C0.291667 4.83579 1.33583 3.79163 2.625 3.79163H9.91667C11.69 3.79163 13.125 5.22663 13.125 6.99996C13.125 8.77329 11.69 10.2083 9.91667 10.2083H3.20833V9.33329Z"/>
</mask>
<path d="M3.20833 9.33329H9.91667C11.2058 9.33329 12.25 8.28913 12.25 6.99996C12.25 5.71079 11.2058 4.66663 9.91667 4.66663H2.625C2.23823 4.66663 1.86729 4.82027 1.5938 5.09376C1.32031 5.36725 1.16667 5.73819 1.16667 6.12496C1.16667 6.51173 1.32031 6.88267 1.5938 7.15616C1.86729 7.42965 2.23823 7.58329 2.625 7.58329H8.75C9.07083 7.58329 9.33333 7.32079 9.33333 6.99996C9.33333 6.67913 9.07083 6.41663 8.75 6.41663H3.20833V5.54163H8.75C9.13677 5.54163 9.50771 5.69527 9.7812 5.96876C10.0547 6.24225 10.2083 6.61318 10.2083 6.99996C10.2083 7.38673 10.0547 7.75767 9.7812 8.03116C9.50771 8.30465 9.13677 8.45829 8.75 8.45829H2.625C1.33583 8.45829 0.291667 7.41413 0.291667 6.12496C0.291667 4.83579 1.33583 3.79163 2.625 3.79163H9.91667C11.69 3.79163 13.125 5.22663 13.125 6.99996C13.125 8.77329 11.69 10.2083 9.91667 10.2083H3.20833V9.33329Z" fill="#212121"/>
<path d="M3.20833 9.33329H2.00833V8.13329H3.20833V9.33329ZM3.20833 6.41663V7.61663H2.00833V6.41663H3.20833ZM3.20833 5.54163H2.00833V4.34163H3.20833V5.54163ZM8.75 5.54163V4.34163V5.54163ZM10.2083 6.99996H11.4083H10.2083ZM8.75 8.45829V7.25829V8.45829ZM3.20833 10.2083V11.4083H2.00833V10.2083H3.20833ZM3.20833 9.33329V8.13329H9.91667V9.33329V10.5333H3.20833V9.33329ZM9.91667 9.33329V8.13329C10.5431 8.13329 11.05 7.62638 11.05 6.99996H12.25H13.45C13.45 8.95187 11.8686 10.5333 9.91667 10.5333V9.33329ZM12.25 6.99996H11.05C11.05 6.37353 10.5431 5.86663 9.91667 5.86663V4.66663V3.46663C11.8686 3.46663 13.45 5.04805 13.45 6.99996H12.25ZM9.91667 4.66663V5.86663H2.625V4.66663V3.46663H9.91667V4.66663ZM2.625 4.66663V5.86663C2.55649 5.86663 2.49078 5.89384 2.44233 5.94229L1.5938 5.09376L0.745275 4.24523C1.24381 3.7467 1.91997 3.46663 2.625 3.46663V4.66663ZM1.5938 5.09376L2.44233 5.94229C2.39388 5.99074 2.36667 6.05644 2.36667 6.12496H1.16667H-0.0333328C-0.0333328 5.41993 0.24674 4.74377 0.745275 4.24523L1.5938 5.09376ZM1.16667 6.12496H2.36667C2.36667 6.19347 2.39388 6.25918 2.44233 6.30763L1.5938 7.15616L0.745275 8.00468C0.24674 7.50615 -0.0333328 6.82999 -0.0333328 6.12496H1.16667ZM1.5938 7.15616L2.44233 6.30763C2.49078 6.35607 2.55649 6.38329 2.625 6.38329V7.58329V8.78329C1.91997 8.78329 1.24381 8.50322 0.745275 8.00468L1.5938 7.15616ZM2.625 7.58329V6.38329H8.75V7.58329V8.78329H2.625V7.58329ZM8.75 7.58329V6.38329C8.40809 6.38329 8.13333 6.65805 8.13333 6.99996H9.33333H10.5333C10.5333 7.98353 9.73358 8.78329 8.75 8.78329V7.58329ZM9.33333 6.99996H8.13333C8.13333 7.34187 8.40809 7.61663 8.75 7.61663V6.41663V5.21663C9.73358 5.21663 10.5333 6.01638 10.5333 6.99996H9.33333ZM8.75 6.41663V7.61663H3.20833V6.41663V5.21663H8.75V6.41663ZM3.20833 6.41663H2.00833V5.54163H3.20833H4.40833V6.41663H3.20833ZM3.20833 5.54163V4.34163H8.75V5.54163V6.74163H3.20833V5.54163ZM8.75 5.54163V4.34163C9.45503 4.34163 10.1312 4.6217 10.6297 5.12023L9.7812 5.96876L8.93267 6.81729C8.88422 6.76884 8.81851 6.74163 8.75 6.74163V5.54163ZM9.7812 5.96876L10.6297 5.12023C11.1283 5.61877 11.4083 6.29492 11.4083 6.99996L10.2083 6.99996H9.00833C9.00833 6.93144 8.98112 6.86574 8.93267 6.81729L9.7812 5.96876ZM10.2083 6.99996H11.4083C11.4083 7.70499 11.1283 8.38115 10.6297 8.87968L9.7812 8.03116L8.93267 7.18263C8.98112 7.13418 9.00833 7.06847 9.00833 6.99996L10.2083 6.99996ZM9.7812 8.03116L10.6297 8.87968C10.1312 9.37822 9.45503 9.65829 8.75 9.65829V8.45829V7.25829C8.81851 7.25829 8.88422 7.23107 8.93267 7.18263L9.7812 8.03116ZM8.75 8.45829V9.65829H2.625V8.45829V7.25829H8.75V8.45829ZM2.625 8.45829V9.65829C0.673092 9.65829 -0.908333 8.07687 -0.908333 6.12496H0.291667H1.49167C1.49167 6.75138 1.99858 7.25829 2.625 7.25829V8.45829ZM0.291667 6.12496H-0.908333C-0.908333 4.17305 0.673092 2.59163 2.625 2.59163V3.79163V4.99163C1.99858 4.99163 1.49167 5.49853 1.49167 6.12496H0.291667ZM2.625 3.79163V2.59163H9.91667V3.79163V4.99163H2.625V3.79163ZM9.91667 3.79163V2.59163C12.3527 2.59163 14.325 4.56388 14.325 6.99996H13.125H11.925C11.925 5.88937 11.0273 4.99163 9.91667 4.99163V3.79163ZM13.125 6.99996H14.325C14.325 9.43603 12.3527 11.4083 9.91667 11.4083V10.2083V9.00829C11.0273 9.00829 11.925 8.11055 11.925 6.99996H13.125ZM9.91667 10.2083V11.4083H3.20833V10.2083V9.00829H9.91667V10.2083ZM3.20833 10.2083H2.00833V9.33329H3.20833H4.40833V10.2083H3.20833Z" fill="#707070" mask="url(#path-1-inside-1_247_1118)"/>
</svg>
